<svg width="201" height="55" viewBox="0 0 201 55" fill="none" xmlns="http://www.w3.org/2000/svg">
<path d="M73.8979 17.3379C76.437 17.3379 78.4879 17.603 80.0504 18.1331C81.6409 18.6354 82.7989 19.5143 83.5243 20.7699C84.2777 21.9977 84.6544 23.7137 84.6544 25.918C84.6544 27.2573 84.473 28.4432 84.1103 29.4756C83.7755 30.4801 83.2034 31.2893 82.3943 31.9031C81.5851 32.517 80.4829 32.9077 79.0878 33.0751V33.2843C79.59 33.368 80.1062 33.5634 80.6364 33.8703C81.1944 34.1772 81.7106 34.6376 82.185 35.2515C82.6593 35.8374 83.0081 36.6327 83.2313 37.6372L85.7426 46.6358H79.0041L76.7858 37.8464C76.5347 36.8978 76.158 36.242 75.6557 35.8793C75.1814 35.5166 74.5117 35.3352 73.6467 35.3352C71.7493 35.3352 70.1449 35.3352 68.8335 35.3352C67.55 35.3073 66.4618 35.2794 65.5689 35.2515C64.7039 35.2236 63.9226 35.1957 63.225 35.1678L63.3506 30.522H73.7723C74.8884 30.522 75.7673 30.4104 76.4091 30.1871C77.0788 29.936 77.5392 29.5035 77.7903 28.8896C78.0693 28.2758 78.2088 27.4248 78.2088 26.3365C78.2088 25.2204 78.0693 24.3694 77.7903 23.7834C77.5392 23.1696 77.0788 22.751 76.4091 22.5278C75.7673 22.2767 74.8884 22.1511 73.7723 22.1511C71.1494 22.1511 68.9312 22.1651 67.1175 22.193C65.3038 22.2209 64.0621 22.2627 63.3925 22.3185L62.7646 17.7564C63.9366 17.6169 65.0387 17.5193 66.0711 17.4635C67.1035 17.4076 68.2336 17.3797 69.4613 17.3797C70.689 17.3518 72.1679 17.3379 73.8979 17.3379ZM69.0846 17.7564V46.6358H62.7646V17.7564H69.0846Z" fill="url(#paint0_linear_2125_59961)"/>
<path d="M99.0356 25.4157C102.523 25.4157 105.021 26.0157 106.527 27.2155C108.062 28.3874 108.829 30.1453 108.829 32.4891C108.857 34.3865 108.383 35.8095 107.406 36.7582C106.43 37.679 104.742 38.1394 102.342 38.1394H90.7903V34.6655H100.626C101.575 34.6655 102.175 34.4702 102.426 34.0796C102.705 33.661 102.844 33.089 102.844 32.3635C102.816 31.3869 102.523 30.7173 101.965 30.3545C101.435 29.9639 100.528 29.7686 99.2448 29.7686C98.1008 29.7686 97.2079 29.9221 96.5662 30.229C95.9244 30.5359 95.478 31.1219 95.2268 31.9869C94.9757 32.8518 94.8501 34.1075 94.8501 35.7537C94.8501 37.4837 95.0036 38.823 95.3105 39.7717C95.6175 40.6925 96.1337 41.3343 96.8591 41.697C97.6125 42.0598 98.6449 42.2411 99.9563 42.2411C100.905 42.2411 102.077 42.2132 103.472 42.1574C104.895 42.0737 106.318 41.9482 107.741 41.7807L108.327 45.5895C107.518 45.9801 106.597 46.287 105.565 46.5103C104.532 46.7335 103.472 46.8869 102.384 46.9707C101.296 47.0823 100.249 47.1381 99.2448 47.1381C96.622 47.1381 94.5014 46.7614 92.883 46.008C91.2925 45.2267 90.1346 44.0409 89.4091 42.4504C88.7115 40.8599 88.3627 38.823 88.3627 36.3397C88.3627 33.6331 88.7255 31.4846 89.4509 29.8941C90.1764 28.3037 91.3204 27.1597 92.883 26.4621C94.4455 25.7645 96.4964 25.4157 99.0356 25.4157Z" fill="url(#paint1_linear_2125_59961)"/>
<path d="M134.774 26.2477L128.789 36.3346L135.235 46.9237H128.956L122.846 36.3346L128.496 26.2477H134.774ZM119.079 26.2477L124.729 36.3346L118.66 46.9237H112.34L118.786 36.3346L112.801 26.2477H119.079ZM127.073 34.3256V38.1761H120.544V34.3256H127.073Z" fill="#232323"/>
<path d="M151.783 25.7454C154.378 25.7454 156.233 26.6941 157.35 28.5915C158.466 30.4889 159.024 33.2094 159.024 36.7531C159.024 39.5155 158.731 41.6779 158.145 43.2405C157.587 44.8031 156.722 45.9052 155.55 46.547C154.406 47.1608 152.969 47.4678 151.239 47.4678C149.76 47.4678 148.351 47.2585 147.012 46.84C145.672 46.4214 144.486 45.7238 143.454 44.7472L143.873 41.9849C144.793 42.2639 145.63 42.515 146.384 42.7382C147.165 42.9336 148.044 43.0312 149.021 43.0312C149.914 43.0312 150.625 42.8778 151.155 42.5708C151.685 42.2639 152.062 41.664 152.285 40.7711C152.536 39.8503 152.662 38.5249 152.662 36.795C152.662 35.0929 152.55 33.7954 152.327 32.9025C152.104 31.9817 151.741 31.3539 151.239 31.0191C150.737 30.6563 150.081 30.475 149.272 30.475C148.379 30.475 147.556 30.6563 146.802 31.0191C146.049 31.3539 145.198 31.8422 144.249 32.484L143.454 29.6379C144.012 28.8845 144.724 28.2148 145.589 27.6289C146.481 27.0429 147.458 26.5825 148.518 26.2477C149.579 25.9129 150.667 25.7454 151.783 25.7454ZM143.203 26.2477L143.789 30.0146L144.375 30.6424V44.0776L144.166 44.5798C144.249 45.4169 144.305 46.2819 144.333 47.1748C144.389 48.0956 144.403 49.0024 144.375 49.8953V54.876H138.18V26.2477H143.203Z" fill="#232323"/>
<path d="M174.201 25.7036C175.93 25.7036 177.395 25.9408 178.595 26.4151C179.795 26.8616 180.702 27.6428 181.316 28.7589C181.957 29.8472 182.278 31.3539 182.278 33.2792V46.9237H177.34L176.461 42.4453L176.042 41.8175V33.2373C176.042 32.2607 175.805 31.5492 175.331 31.1028C174.884 30.6563 174.019 30.4331 172.736 30.4331C171.675 30.4331 170.35 30.475 168.759 30.5587C167.169 30.6145 165.537 30.6982 163.863 30.8098L163.277 26.7081C164.281 26.5128 165.439 26.3454 166.75 26.2058C168.062 26.0663 169.373 25.9547 170.685 25.871C171.996 25.7594 173.168 25.7036 174.201 25.7036ZM179.725 34.2L179.683 37.6739L170.475 37.7157C169.722 37.7157 169.178 37.8971 168.843 38.2598C168.536 38.6226 168.383 39.1109 168.383 39.7247V40.7292C168.383 41.4268 168.578 41.9709 168.969 42.3616C169.359 42.7243 169.987 42.9057 170.852 42.9057C171.578 42.9057 172.359 42.7522 173.196 42.4453C174.061 42.1383 174.912 41.7058 175.749 41.1478C176.586 40.5897 177.326 39.934 177.967 39.1806V41.8593C177.716 42.2779 177.34 42.808 176.837 43.4498C176.363 44.0636 175.749 44.6775 174.996 45.2914C174.242 45.8773 173.363 46.3796 172.359 46.7981C171.354 47.2166 170.21 47.4259 168.927 47.4259C167.671 47.4259 166.541 47.2027 165.537 46.7563C164.532 46.3098 163.737 45.6541 163.151 44.7891C162.565 43.9241 162.272 42.8499 162.272 41.5663V39.4318C162.272 37.7855 162.83 36.502 163.946 35.5812C165.062 34.6604 166.597 34.2 168.55 34.2H179.725Z" fill="#232323"/>
<path d="M195.224 20.5137V40.3107C195.224 41.0641 195.392 41.6082 195.727 41.943C196.089 42.2499 196.675 42.4034 197.485 42.4034H200.163L200.833 46.5888C200.331 46.7563 199.717 46.8958 198.991 47.0074C198.266 47.1469 197.54 47.2445 196.815 47.3004C196.089 47.3841 195.476 47.4259 194.973 47.4259C193.104 47.4259 191.639 46.9237 190.579 45.9192C189.546 44.9147 189.03 43.5056 189.03 41.6919L188.988 20.5137H195.224ZM201 26.2477V30.3076H185.389V26.457L189.407 26.2477H201Z" fill="#232323"/>
<path d="M52.751 26.3755C52.751 33.3617 52.751 52.751 52.751 52.751C52.751 52.751 33.956 52.751 26.3755 52.751C11.8087 52.751 0 40.9423 0 26.3755C0 11.8087 11.8087 0 26.3755 0C40.9423 0 52.751 11.8087 52.751 26.3755Z" fill="url(#paint2_linear_2125_59961)"/>
<path d="M45.4245 39.1961C45.4245 40.7163 45.4245 44.9353 45.4245 44.9353C45.4245 44.9353 41.3349 44.9353 39.6854 44.9353C36.5158 44.9353 33.9463 42.3658 33.9463 39.1961C33.9463 36.0265 36.5158 33.457 39.6854 33.457C42.855 33.457 45.4245 36.0265 45.4245 39.1961Z" fill="white"/>
<circle cx="26.3758" cy="26.4114" r="4.18874" fill="white"/>
<circle cx="14.2019" cy="26.4114" r="4.18874" fill="white"/>
<defs>
<linearGradient id="paint0_linear_2125_59961" x1="64.3521" y1="20.0243" x2="114.295" y2="49.3304" gradientUnits="userSpaceOnUse">
<stop stop-color="#EB3D32"/>
<stop offset="1" stop-color="#F5AF2F"/>
</linearGradient>
<linearGradient id="paint1_linear_2125_59961" x1="64.3521" y1="20.0243" x2="114.295" y2="49.3304" gradientUnits="userSpaceOnUse">
<stop stop-color="#EB3D32"/>
<stop offset="1" stop-color="#F5AF2F"/>
</linearGradient>
<linearGradient id="paint2_linear_2125_59961" x1="26.3755" y1="0" x2="26.3755" y2="52.751" gradientUnits="userSpaceOnUse">
<stop offset="0.359375" stop-color="#FF503E"/>
<stop offset="1" stop-color="#F5B12E"/>
</linearGradient>
</defs>
</svg>
